<?xml version="1.0" standalone="no"?>
<!DOCTYPE svg PUBLIC "-//W3C//DTD SVG 20010904//EN"
 "http://www.w3.org/TR/2001/REC-SVG-20010904/DTD/svg10.dtd">
<svg version="1.0" xmlns="http://www.w3.org/2000/svg"
 width="665.000000pt" height="375.000000pt" viewBox="0 0 665.000000 375.000000"
 preserveAspectRatio="xMidYMid meet">

<g transform="translate(0.000000,375.000000) scale(0.100000,-0.100000)"
fill="#000000" stroke="none">
<path d="M4091 2750 c-190 -30 -283 -63 -338 -120 -42 -43 -49 -83 -28 -157
28 -98 100 -185 199 -240 100 -54 344 -41 451 25 92 57 153 145 162 237 8 78
32 69 34 -13 l1 -37 9 35 c9 41 -4 100 -33 149 l-21 33 22 -12 c35 -18 65 -94
57 -148 -5 -39 -4 -43 9 -32 31 26 8 168 -37 225 -12 15 -44 38 -72 51 -46 21
-64 24 -176 23 -69 -1 -176 -9 -239 -19z m197 -65 c-2 -3 -67 -23 -144 -44
-126 -36 -172 -52 -271 -97 -17 -8 -38 -11 -47 -8 -18 7 -31 43 -19 54 15 15
297 80 383 89 47 4 89 9 94 10 5 0 7 -1 4 -4z"/>
<path d="M1880 2250 l0 -500 85 0 85 0 0 419 c0 380 2 420 16 423 9 2 67 1
129 -2 104 -5 114 -7 149 -34 106 -81 98 -257 -14 -313 -35 -18 -61 -23 -127
-23 l-83 0 0 -81 0 -82 115 5 c104 5 122 9 179 37 245 121 250 470 8 599 -76
40 -161 52 -384 52 l-158 0 0 -500z"/>
<path d="M2624 2737 c-3 -8 -4 -43 -2 -78 l3 -64 70 3 c39 2 103 0 143 -3 l72
-7 0 -419 0 -419 90 0 90 0 2 423 3 422 75 1 c41 1 106 2 143 3 l68 1 -3 73
-3 72 -373 3 c-308 2 -373 0 -378 -11z"/>
<path d="M4620 2698 c0 -2 11 -25 25 -52 29 -57 33 -122 9 -167 -19 -37 -11
-49 16 -24 46 41 51 138 10 195 -17 24 -60 59 -60 48z"/>
<path d="M4725 2498 c-10 -18 -24 -41 -33 -50 -17 -20 -10 -23 18 -8 18 10 47
77 37 87 -3 2 -13 -10 -22 -29z"/>
<path d="M3681 2439 c-1 -27 7 -42 34 -69 19 -19 35 -29 35 -23 0 7 -5 15 -11
19 -6 3 -22 30 -35 58 l-23 51 0 -36z"/>
<path d="M4751 2444 c0 -11 3 -14 6 -6 3 7 2 16 -1 19 -3 4 -6 -2 -5 -13z"/>
<path d="M4573 2423 c9 -2 23 -2 30 0 6 3 -1 5 -18 5 -16 0 -22 -2 -12 -5z"/>
<path d="M4665 2405 c-50 -18 -98 -72 -127 -144 -27 -69 -30 -201 -4 -270 18
-49 20 -63 6 -41 -9 13 -10 13 -10 0 0 -28 29 -175 45 -230 19 -62 31 -80 52
-80 55 0 206 299 234 462 23 139 -19 271 -96 304 -42 17 -49 17 -100 -1z m41
-67 c-55 -76 -57 -81 -53 -153 1 -38 6 -79 10 -90 4 -11 -4 3 -17 30 -42 86
-39 151 9 200 42 41 79 50 51 13z"/>
<path d="M4514 2348 c-53 -70 -133 -133 -196 -155 -43 -14 -90 -18 -248 -18
-179 -1 -248 -6 -354 -21 l-39 -6 7 -117 c4 -66 21 -183 39 -271 l32 -155 105
0 105 1 5 154 c6 169 12 189 63 220 42 26 156 28 197 4 26 -16 60 -62 60 -81
0 -4 -9 7 -20 25 -35 57 -137 80 -215 48 -60 -26 -66 -44 -63 -217 l3 -154 40
0 40 0 3 80 c2 58 8 87 21 105 38 53 105 51 145 -3 16 -22 22 -47 25 -108 l3
-80 47 3 46 3 5 225 c5 208 7 228 27 266 12 23 36 53 53 67 19 16 36 45 45 74
8 27 30 72 50 101 40 61 40 62 21 62 -7 0 -31 -23 -52 -52z m-579 -472 c-18
-55 -89 -169 -126 -201 -14 -13 -9 -2 13 30 61 86 110 191 117 247 6 51 6 51
9 14 2 -21 -4 -62 -13 -90z"/>
<path d="M3670 2337 c0 -14 7 -32 15 -40 16 -16 112 -33 123 -22 8 8 -38 44
-57 45 -7 0 -29 9 -47 21 l-34 21 0 -25z"/>
<path d="M3680 2218 l0 -50 53 6 c28 3 82 8 120 12 37 3 67 10 67 15 0 5 -6 9
-14 9 -7 0 -25 9 -39 20 -16 13 -41 20 -69 20 -23 0 -60 4 -80 9 l-38 9 0 -50z"/>
<path d="M4447 2128 c-43 -56 -57 -116 -57 -244 0 -130 6 -151 63 -219 l42
-50 -35 26 c-19 14 -45 44 -57 65 l-23 39 0 -72 0 -73 100 0 c94 0 100 1 100
20 0 12 -7 35 -16 52 -38 74 -73 237 -82 383 l-7 110 -28 -37z"/>
<path d="M4115 1785 c-22 -22 -25 -32 -25 -105 0 -44 4 -80 9 -80 5 0 10 36
12 79 3 60 9 84 23 100 25 28 51 27 81 -4 22 -21 25 -33 25 -95 0 -46 4 -70
11 -70 9 0 10 22 6 78 -6 66 -10 80 -32 100 -35 29 -79 29 -110 -3z"/>
<path d="M4155 1727 c-4 -18 -5 -53 -3 -77 2 -38 7 -46 26 -48 21 -3 22 0 22
61 0 36 -3 72 -6 81 -10 27 -33 18 -39 -17z"/>
<path d="M1877 1573 c-4 -3 -7 -114 -7 -245 l0 -238 40 0 39 0 3 153 3 152 38
-70 c21 -38 51 -92 67 -120 16 -27 32 -54 34 -60 7 -14 33 24 89 129 77 145
77 145 77 -32 l0 -152 35 0 35 0 0 245 0 245 -28 0 c-30 0 -41 -16 -150 -229
-21 -41 -42 -76 -48 -78 -5 -2 -45 67 -89 152 -72 139 -83 155 -106 155 -14 0
-29 -3 -32 -7z"/>
<path d="M2420 1335 l0 -245 155 0 155 0 0 35 0 35 -115 0 -115 0 0 75 0 75
95 0 95 0 0 35 0 35 -95 0 -95 0 0 65 0 65 110 0 110 0 0 35 0 35 -150 0 -150
0 0 -245z"/>
<path d="M2780 1335 l0 -245 40 0 40 0 0 85 0 85 40 0 c39 0 39 -1 86 -85 l48
-85 42 0 43 0 -45 78 c-24 42 -44 80 -44 84 0 3 15 15 33 26 63 36 84 128 50
213 -13 34 -25 46 -67 65 -44 20 -66 24 -158 24 l-108 0 0 -245z m241 146 c23
-23 29 -39 29 -70 0 -64 -24 -81 -115 -81 l-75 0 0 90 0 90 66 0 c59 0 68 -3
95 -29z"/>
<path d="M3152 1548 l3 -33 68 -3 67 -3 0 -209 0 -210 40 0 40 0 0 210 0 210
65 0 65 0 0 35 0 35 -176 0 -175 0 3 -32z"/>
<path d="M3747 1563 c-10 -9 -8 -456 2 -471 6 -10 40 -12 147 -9 76 2 149 7
162 11 28 10 29 -7 2 -34 -18 -18 -33 -20 -154 -20 -74 0 -137 -3 -139 -7 -3
-5 -1 -18 4 -30 8 -22 13 -23 127 -23 107 0 123 2 169 26 41 20 54 33 63 60 9
26 17 34 36 34 16 0 27 -8 33 -23 26 -67 109 -97 269 -97 101 0 122 7 122 42
0 16 -12 18 -143 18 -113 0 -147 3 -165 16 -12 8 -22 22 -22 30 0 16 36 19 45
4 9 -14 52 -12 58 3 4 10 6 9 6 0 1 -10 31 -13 115 -13 115 0 126 3 126 41 0
5 -151 9 -367 9 -352 0 -369 1 -401 20 -52 32 -75 96 -70 191 5 86 18 112 74
156 l37 28 364 3 c334 3 363 4 363 20 0 16 -33 17 -428 19 -236 2 -432 0 -435
-4z"/>
<path d="M3970 1330 l0 -170 325 0 325 0 0 170 0 170 -325 0 -325 0 0 -170z"/>
<path d="M3868 1474 c-78 -42 -89 -228 -16 -289 17 -14 42 -25 59 -25 l29 0 0
165 c0 165 0 165 -22 165 -13 -1 -35 -7 -50 -16z"/>
</g>
</svg>
